<?xml version="1.0" encoding="utf-8"?>
<!-- Generator: Adobe Illustrator 19.0.0, SVG Export Plug-In . SVG Version: 6.00 Build 0)  -->
<svg version="1.1" id="Layer_1" xmlns="http://www.w3.org/2000/svg" xmlns:xlink="http://www.w3.org/1999/xlink" x="0px" y="0px"
	 viewBox="0 0 345 45" enable-background="new 0 0 345 45" xml:space="preserve">
<g id="XMLID_2805_">
	<path id="XMLID_2_" fill="#FAFAFA" d="M311.1,39c-10.9,0-16.5-7.2-20.9-12.9c-4.5-5.8-7.3-9.1-13-9.1c-5.7,0-8.5,3.3-13,9.1
		c-4.4,5.8-10,12.9-20.9,12.9s-16.5-7.2-20.9-12.9c-4.5-5.8-7.3-9.1-13-9.1s-8.5,3.3-13,9.1c-4.4,5.8-10,12.9-20.9,12.9
		c-10.9,0-16.5-7.2-20.9-12.9c-4.5-5.8-7.3-9.1-13-9.1c-5.7,0-8.5,3.3-13,9.1c-4.4,5.8-10,12.9-20.9,12.9s-16.5-7.2-20.9-12.9
		c-4.5-5.8-7.3-9.1-13-9.1c-5.7,0-8.5,3.3-13,9.1C56.4,31.8,50.8,39,39.9,39C29,39,23.4,31.8,19,26.1C14.5,20.3,11.7,17,6,17V7
		c10.9,0,16.5,7.2,20.9,12.9c4.5,5.8,7.3,9.1,13,9.1c5.7,0,8.5-3.3,13-9.1C57.3,14.2,62.9,7,73.8,7c10.9,0,16.5,7.2,20.9,12.9
		c4.5,5.8,7.3,9.1,13,9.1c5.7,0,8.5-3.3,13-9.1c4.4-5.8,10-12.9,20.9-12.9c10.9,0,16.5,7.2,20.9,12.9c4.5,5.8,7.3,9.1,13,9.1
		s8.5-3.3,13-9.1c4.4-5.8,10-12.9,20.9-12.9c10.9,0,16.5,7.2,20.9,12.9c4.5,5.8,7.3,9.1,13,9.1s8.5-3.3,13-9.1
		c4.4-5.8,10-12.9,20.9-12.9c10.9,0,16.5,7.2,20.9,12.9c4.5,5.8,7.3,9.1,13,9.1c5.7,0,8.5-3.3,13-9.1C328.5,14.2,334.1,7,345,7v10
		c-5.7,0-8.5,3.3-13,9.1C327.6,31.8,322,39,311.1,39z"/>
</g>
</svg>
